# Blender 4.3.2
# www.blender.org
mtllib 2x.mtl
o 2x
v 0.000000 -1.000000 -0.305000
v 0.000000 1.000000 -0.305000
v 0.179274 -1.000000 -0.246750
v 0.179274 1.000000 -0.246750
v 0.290072 -1.000000 -0.094250
v 0.290072 1.000000 -0.094250
v 0.290072 -1.000000 0.094250
v 0.290072 1.000000 0.094250
v 0.179274 -1.000000 0.246750
v 0.179274 1.000000 0.246750
v 0.000000 -1.000000 0.305000
v 0.000000 1.000000 0.305000
v -0.179274 -1.000000 0.246750
v -0.178764 0.997715 0.246194
v -0.290072 -1.000000 0.094250
v -0.289265 1.000000 0.089893
v -0.290072 -1.000000 -0.094250
v -0.290072 1.000000 -0.094250
v -0.179274 -1.000000 -0.246750
v -0.179274 1.000000 -0.246750
vn -0.0000 -0.0000 -1.0000
vn 0.5878 -0.0000 -0.8090
vn 0.9511 -0.0000 -0.3090
vn 0.9511 -0.0000 0.3090
vn 0.5878 -0.0000 0.8090
vn -0.0009 0.0001 1.0000
vn -0.0005 0.0001 1.0000
vn -0.5912 0.0006 0.8065
vn -0.5911 0.0006 0.8066
vn -0.9513 0.0006 0.3081
vn -0.9522 0.0006 0.3054
vn -0.9514 0.0001 -0.3080
vn -0.5878 -0.0000 -0.8090
vt 1.000000 0.500000
vt 1.000000 1.000000
vt 0.900000 1.000000
vt 0.900000 0.500000
vt 0.800000 1.000000
vt 0.800000 0.500000
vt 0.700000 1.000000
vt 0.700000 0.500000
vt 0.600000 1.000000
vt 0.600000 0.500000
vt 0.500000 1.000000
vt 0.500000 0.500000
vt 0.400000 1.000000
vt 0.400000 0.500000
vt 0.300000 1.000000
vt 0.300000 0.500000
vt 0.200000 1.000000
vt 0.200000 0.500000
vt 0.100000 1.000000
vt 0.100000 0.500000
vt -0.000000 1.000000
vt -0.000000 0.500000
s 1
f 1/1/1 2/2/1 4/3/2 3/4/2
f 3/4/2 4/3/2 6/5/3 5/6/3
f 5/6/3 6/5/3 8/7/4 7/8/4
f 7/8/4 8/7/4 10/9/5 9/10/5
f 9/10/5 10/9/5 12/11/7 11/12/6
f 11/12/6 12/11/7 14/13/9 13/14/8
f 13/14/8 14/13/9 16/15/11 15/16/10
f 15/16/10 16/15/11 18/17/12 17/18/12
f 17/18/12 18/17/12 20/19/13 19/20/13
f 19/20/13 20/19/13 2/21/1 1/22/1
